# xmcd
#
# Track frame offsets:
# 150
# 14764
# 27391
# 36910
# 47339
# 57500
# 68743
# 81275
# 93280
# 106672
# 119048
# 132783
# 144251
# 159093
# 170693
# 183145
# 194310
# 205131
# 218221
# 228987
# 240500
# 251850
# 262522
# 273475
#
# Disc length: 3814 seconds
#
#
# Revision: 0
# Processed by: cddbd v1.5.2PL0 Copyright (c) Steve Scherf et al.
# Submitted via: FreeRIP 2.95 
#
DISCID=490ee418
DTITLE=Pirigoso - Baile Caipira
DYEAR=1900
DGENRE=Pop
TTITLE0=Esquentando Quentão
TTITLE1=Fandando do Caxingui
TTITLE2=Baile na Fazenda
TTITLE3=Minas Gerais
TTITLE4=Teu Semblante
TTITLE5=Acordei Cansado
TTITLE6=Arrasta-pé do Galo
TTITLE7=Segura a Saia
TTITLE8=Frevo no Sertão
TTITLE9=Roubei a Gauchina
TTITLE10=Linda
TTITLE11=Quadrilha Cabocla
TTITLE12=Baile Caipira
TTITLE13=Antigamente Era Assim
TTITLE14=Castro Alves
TTITLE15=Fuxico no Arraial
TTITLE16=Fogo na Canjica
TTITLE17=Suspiiro da Velha
TTITLE18=Buliçoso
TTITLE19=Na Beira da Tuia
TTITLE20=Curitibana
TTITLE21=Chorão
TTITLE22=Mexeriqueira
TTITLE23=Festa dos Fazendeiros
EXTD=
EXTT0=
EXTT1=
EXTT2=
EXTT3=
EXTT4=
EXTT5=
EXTT6=
EXTT7=
EXTT8=
EXTT9=
EXTT10=
EXTT11=
EXTT12=
EXTT13=
EXTT14=
EXTT15=
EXTT16=
EXTT17=
EXTT18=
EXTT19=
EXTT20=
EXTT21=
EXTT22=
EXTT23=
PLAYORDER=
